<svg xmlns="http://www.w3.org/2000/svg" width="1536" height="2048" viewBox="0 0 1536 2048">
<defs><linearGradient id="wood" x1="0" x2="1"><stop stop-color="#b9773c"/><stop offset=".5" stop-color="#d2965b"/><stop offset="1" stop-color="#8e552c"/></linearGradient><linearGradient id="glass"><stop stop-color="#fff" stop-opacity=".1"/><stop offset=".55" stop-color="#fff" stop-opacity=".38"/><stop offset="1" stop-color="#000" stop-opacity=".12"/></linearGradient><filter id="blur"><feGaussianBlur stdDeviation="18"/></filter></defs>
<rect width="1536" height="2048" fill="#dbe0d3"/><path d="M0 1560H1536V2048H0z" fill="#ddcaac"/><g stroke="#cbb99b" stroke-width="2" opacity=".7"><line x1="-300" y1="1560" x2="220" y2="2048"/><line x1="-140" y1="1560" x2="380" y2="2048"/><line x1="20" y1="1560" x2="540" y2="2048"/><line x1="180" y1="1560" x2="700" y2="2048"/><line x1="340" y1="1560" x2="860" y2="2048"/><line x1="500" y1="1560" x2="1020" y2="2048"/><line x1="660" y1="1560" x2="1180" y2="2048"/><line x1="820" y1="1560" x2="1340" y2="2048"/><line x1="980" y1="1560" x2="1500" y2="2048"/><line x1="1140" y1="1560" x2="1660" y2="2048"/><line x1="1300" y1="1560" x2="1820" y2="2048"/><line x1="1460" y1="1560" x2="1980" y2="2048"/></g><rect y="1530" width="1536" height="35" fill="#b2a694"/>
<ellipse cx="1230" cy="1330" rx="150" ry="190" fill="#5f824c"/><rect x="1208" y="1370" width="50" height="170" fill="#5a4b2d"/><ellipse cx="768" cy="1510" rx="430" ry="115" fill="#000" opacity=".22" filter="url(#blur)"/>
<g id="cabinet" transform="translate(358 260)">
  <rect x="0" y="0" width="820" height="1360" fill="#1f1d19" rx="4"/>
  <rect x="70" y="45" width="680" height="210" fill="#302b26"/>
  <g><rect x="90" y="60" width="640" height="175" fill="#433c34"/><g stroke="#d6c6aa" stroke-width="2" opacity=".82"><line x1="95" y1="60" x2="95" y2="235"/><line x1="105" y1="60" x2="105" y2="235"/><line x1="115" y1="60" x2="115" y2="235"/><line x1="125" y1="60" x2="125" y2="235"/><line x1="135" y1="60" x2="135" y2="235"/><line x1="145" y1="60" x2="145" y2="235"/><line x1="155" y1="60" x2="155" y2="235"/><line x1="165" y1="60" x2="165" y2="235"/><line x1="175" y1="60" x2="175" y2="235"/><line x1="185" y1="60" x2="185" y2="235"/><line x1="195" y1="60" x2="195" y2="235"/><line x1="205" y1="60" x2="205" y2="235"/><line x1="215" y1="60" x2="215" y2="235"/><line x1="225" y1="60" x2="225" y2="235"/><line x1="235" y1="60" x2="235" y2="235"/><line x1="245" y1="60" x2="245" y2="235"/><line x1="255" y1="60" x2="255" y2="235"/><line x1="265" y1="60" x2="265" y2="235"/><line x1="275" y1="60" x2="275" y2="235"/><line x1="285" y1="60" x2="285" y2="235"/><line x1="295" y1="60" x2="295" y2="235"/><line x1="305" y1="60" x2="305" y2="235"/><line x1="315" y1="60" x2="315" y2="235"/><line x1="325" y1="60" x2="325" y2="235"/><line x1="335" y1="60" x2="335" y2="235"/><line x1="345" y1="60" x2="345" y2="235"/><line x1="355" y1="60" x2="355" y2="235"/><line x1="365" y1="60" x2="365" y2="235"/><line x1="375" y1="60" x2="375" y2="235"/><line x1="385" y1="60" x2="385" y2="235"/><line x1="395" y1="60" x2="395" y2="235"/><line x1="405" y1="60" x2="405" y2="235"/><line x1="415" y1="60" x2="415" y2="235"/><line x1="425" y1="60" x2="425" y2="235"/><line x1="435" y1="60" x2="435" y2="235"/><line x1="445" y1="60" x2="445" y2="235"/><line x1="455" y1="60" x2="455" y2="235"/><line x1="465" y1="60" x2="465" y2="235"/><line x1="475" y1="60" x2="475" y2="235"/><line x1="485" y1="60" x2="485" y2="235"/><line x1="495" y1="60" x2="495" y2="235"/><line x1="505" y1="60" x2="505" y2="235"/><line x1="515" y1="60" x2="515" y2="235"/><line x1="525" y1="60" x2="525" y2="235"/><line x1="535" y1="60" x2="535" y2="235"/><line x1="545" y1="60" x2="545" y2="235"/><line x1="555" y1="60" x2="555" y2="235"/><line x1="565" y1="60" x2="565" y2="235"/><line x1="575" y1="60" x2="575" y2="235"/><line x1="585" y1="60" x2="585" y2="235"/><line x1="595" y1="60" x2="595" y2="235"/><line x1="605" y1="60" x2="605" y2="235"/><line x1="615" y1="60" x2="615" y2="235"/><line x1="625" y1="60" x2="625" y2="235"/><line x1="635" y1="60" x2="635" y2="235"/><line x1="645" y1="60" x2="645" y2="235"/><line x1="655" y1="60" x2="655" y2="235"/><line x1="665" y1="60" x2="665" y2="235"/><line x1="675" y1="60" x2="675" y2="235"/><line x1="685" y1="60" x2="685" y2="235"/><line x1="695" y1="60" x2="695" y2="235"/><line x1="705" y1="60" x2="705" y2="235"/><line x1="715" y1="60" x2="715" y2="235"/><line x1="725" y1="60" x2="725" y2="235"/></g><rect x="90" y="60" width="640" height="175" fill="url(#glass)" opacity=".45"/></g>
  <rect x="98" y="102" width="18" height="92" rx="8" fill="none" stroke="#a66f38" stroke-width="4"/><rect x="704" y="102" width="18" height="92" rx="8" fill="none" stroke="#a66f38" stroke-width="4"/>
  <rect x="70" y="280" width="680" height="150" fill="#1a1815"/><g><rect x="110" y="320" width="24" height="72" rx="3" fill="#7830a4"/><rect x="145" y="320" width="24" height="72" rx="3" fill="#7830a4"/><rect x="180" y="320" width="24" height="72" rx="3" fill="#7830a4"/><rect x="215" y="320" width="24" height="72" rx="3" fill="#7830a4"/><rect x="250" y="320" width="24" height="72" rx="3" fill="#7830a4"/><rect x="285" y="320" width="24" height="72" rx="3" fill="#7830a4"/><rect x="320" y="320" width="24" height="72" rx="3" fill="#7830a4"/><rect x="355" y="320" width="24" height="72" rx="3" fill="#7830a4"/><rect x="390" y="320" width="24" height="72" rx="3" fill="#7830a4"/><rect x="470" y="318" width="30" height="78" fill="#eee1c8"/><rect x="506" y="318" width="30" height="78" fill="#eee1c8"/><rect x="542" y="318" width="30" height="78" fill="#eee1c8"/><rect x="578" y="318" width="30" height="78" fill="#eee1c8"/><rect x="614" y="318" width="30" height="78" fill="#eee1c8"/><rect x="650" y="318" width="30" height="78" fill="#eee1c8"/><rect x="686" y="318" width="30" height="78" fill="#eee1c8"/><rect x="722" y="318" width="30" height="78" fill="#eee1c8"/></g>
  <rect x="70" y="430" width="680" height="300" fill="#454039"/><g fill="#171614" opacity=".9"><ellipse cx="110" cy="465" rx="4" ry="7"/><ellipse cx="110" cy="499" rx="4" ry="7"/><ellipse cx="110" cy="533" rx="4" ry="7"/><ellipse cx="110" cy="567" rx="4" ry="7"/><ellipse cx="110" cy="601" rx="4" ry="7"/><ellipse cx="110" cy="635" rx="4" ry="7"/><ellipse cx="110" cy="669" rx="4" ry="7"/><ellipse cx="145" cy="465" rx="4" ry="7"/><ellipse cx="145" cy="499" rx="4" ry="7"/><ellipse cx="145" cy="533" rx="4" ry="7"/><ellipse cx="145" cy="567" rx="4" ry="7"/><ellipse cx="145" cy="601" rx="4" ry="7"/><ellipse cx="145" cy="635" rx="4" ry="7"/><ellipse cx="145" cy="669" rx="4" ry="7"/><ellipse cx="180" cy="465" rx="4" ry="7"/><ellipse cx="180" cy="499" rx="4" ry="7"/><ellipse cx="180" cy="533" rx="4" ry="7"/><ellipse cx="180" cy="567" rx="4" ry="7"/><ellipse cx="180" cy="601" rx="4" ry="7"/><ellipse cx="180" cy="635" rx="4" ry="7"/><ellipse cx="180" cy="669" rx="4" ry="7"/><ellipse cx="215" cy="465" rx="4" ry="7"/><ellipse cx="215" cy="499" rx="4" ry="7"/><ellipse cx="215" cy="533" rx="4" ry="7"/><ellipse cx="215" cy="567" rx="4" ry="7"/><ellipse cx="215" cy="601" rx="4" ry="7"/><ellipse cx="215" cy="635" rx="4" ry="7"/><ellipse cx="215" cy="669" rx="4" ry="7"/><ellipse cx="250" cy="465" rx="4" ry="7"/><ellipse cx="250" cy="499" rx="4" ry="7"/><ellipse cx="250" cy="533" rx="4" ry="7"/><ellipse cx="250" cy="567" rx="4" ry="7"/><ellipse cx="250" cy="601" rx="4" ry="7"/><ellipse cx="250" cy="635" rx="4" ry="7"/><ellipse cx="250" cy="669" rx="4" ry="7"/><ellipse cx="285" cy="465" rx="4" ry="7"/><ellipse cx="285" cy="499" rx="4" ry="7"/><ellipse cx="285" cy="533" rx="4" ry="7"/><ellipse cx="285" cy="567" rx="4" ry="7"/><ellipse cx="285" cy="601" rx="4" ry="7"/><ellipse cx="285" cy="635" rx="4" ry="7"/><ellipse cx="285" cy="669" rx="4" ry="7"/><ellipse cx="320" cy="465" rx="4" ry="7"/><ellipse cx="320" cy="499" rx="4" ry="7"/><ellipse cx="320" cy="533" rx="4" ry="7"/><ellipse cx="320" cy="567" rx="4" ry="7"/><ellipse cx="320" cy="601" rx="4" ry="7"/><ellipse cx="320" cy="635" rx="4" ry="7"/><ellipse cx="320" cy="669" rx="4" ry="7"/><ellipse cx="355" cy="465" rx="4" ry="7"/><ellipse cx="355" cy="499" rx="4" ry="7"/><ellipse cx="355" cy="533" rx="4" ry="7"/><ellipse cx="355" cy="567" rx="4" ry="7"/><ellipse cx="355" cy="601" rx="4" ry="7"/><ellipse cx="355" cy="635" rx="4" ry="7"/><ellipse cx="355" cy="669" rx="4" ry="7"/><ellipse cx="390" cy="465" rx="4" ry="7"/><ellipse cx="390" cy="499" rx="4" ry="7"/><ellipse cx="390" cy="533" rx="4" ry="7"/><ellipse cx="390" cy="567" rx="4" ry="7"/><ellipse cx="390" cy="601" rx="4" ry="7"/><ellipse cx="390" cy="635" rx="4" ry="7"/><ellipse cx="390" cy="669" rx="4" ry="7"/><ellipse cx="425" cy="465" rx="4" ry="7"/><ellipse cx="425" cy="499" rx="4" ry="7"/><ellipse cx="425" cy="533" rx="4" ry="7"/><ellipse cx="425" cy="567" rx="4" ry="7"/><ellipse cx="425" cy="601" rx="4" ry="7"/><ellipse cx="425" cy="635" rx="4" ry="7"/><ellipse cx="425" cy="669" rx="4" ry="7"/><ellipse cx="460" cy="465" rx="4" ry="7"/><ellipse cx="460" cy="499" rx="4" ry="7"/><ellipse cx="460" cy="533" rx="4" ry="7"/><ellipse cx="460" cy="567" rx="4" ry="7"/><ellipse cx="460" cy="601" rx="4" ry="7"/><ellipse cx="460" cy="635" rx="4" ry="7"/><ellipse cx="460" cy="669" rx="4" ry="7"/><ellipse cx="495" cy="465" rx="4" ry="7"/><ellipse cx="495" cy="499" rx="4" ry="7"/><ellipse cx="495" cy="533" rx="4" ry="7"/><ellipse cx="495" cy="567" rx="4" ry="7"/><ellipse cx="495" cy="601" rx="4" ry="7"/><ellipse cx="495" cy="635" rx="4" ry="7"/><ellipse cx="495" cy="669" rx="4" ry="7"/><ellipse cx="530" cy="465" rx="4" ry="7"/><ellipse cx="530" cy="499" rx="4" ry="7"/><ellipse cx="530" cy="533" rx="4" ry="7"/><ellipse cx="530" cy="567" rx="4" ry="7"/><ellipse cx="530" cy="601" rx="4" ry="7"/><ellipse cx="530" cy="635" rx="4" ry="7"/><ellipse cx="530" cy="669" rx="4" ry="7"/><ellipse cx="565" cy="465" rx="4" ry="7"/><ellipse cx="565" cy="499" rx="4" ry="7"/><ellipse cx="565" cy="533" rx="4" ry="7"/><ellipse cx="565" cy="567" rx="4" ry="7"/><ellipse cx="565" cy="601" rx="4" ry="7"/><ellipse cx="565" cy="635" rx="4" ry="7"/><ellipse cx="565" cy="669" rx="4" ry="7"/><ellipse cx="600" cy="465" rx="4" ry="7"/><ellipse cx="600" cy="499" rx="4" ry="7"/><ellipse cx="600" cy="533" rx="4" ry="7"/><ellipse cx="600" cy="567" rx="4" ry="7"/><ellipse cx="600" cy="601" rx="4" ry="7"/><ellipse cx="600" cy="635" rx="4" ry="7"/><ellipse cx="600" cy="669" rx="4" ry="7"/><ellipse cx="635" cy="465" rx="4" ry="7"/><ellipse cx="635" cy="499" rx="4" ry="7"/><ellipse cx="635" cy="533" rx="4" ry="7"/><ellipse cx="635" cy="567" rx="4" ry="7"/><ellipse cx="635" cy="601" rx="4" ry="7"/><ellipse cx="635" cy="635" rx="4" ry="7"/><ellipse cx="635" cy="669" rx="4" ry="7"/><ellipse cx="670" cy="465" rx="4" ry="7"/><ellipse cx="670" cy="499" rx="4" ry="7"/><ellipse cx="670" cy="533" rx="4" ry="7"/><ellipse cx="670" cy="567" rx="4" ry="7"/><ellipse cx="670" cy="601" rx="4" ry="7"/><ellipse cx="670" cy="635" rx="4" ry="7"/><ellipse cx="670" cy="669" rx="4" ry="7"/><ellipse cx="705" cy="465" rx="4" ry="7"/><ellipse cx="705" cy="499" rx="4" ry="7"/><ellipse cx="705" cy="533" rx="4" ry="7"/><ellipse cx="705" cy="567" rx="4" ry="7"/><ellipse cx="705" cy="601" rx="4" ry="7"/><ellipse cx="705" cy="635" rx="4" ry="7"/><ellipse cx="705" cy="669" rx="4" ry="7"/></g><rect x="65" y="725" width="690" height="30" fill="#151411"/>
  <g><rect x="120" y="560" width="190" height="160" rx="15" fill="#e8e2d6" stroke="#8d8780" stroke-width="3"/><circle cx="153" cy="600" r="12" fill="#b7b0a8"/><circle cx="195" cy="600" r="12" fill="#b7b0a8"/><rect x="560" y="595" width="160" height="115" rx="25" fill="#eee2c7" stroke="#b0a07e" stroke-width="3"/><rect x="395" y="540" width="165" height="30" fill="#f0e6c8"/><ellipse cx="415" cy="690" rx="55" ry="18" fill="#f5eedc"/><rect x="385" y="650" width="60" height="35" fill="#f5eedc"/></g>
  <g transform="translate(0 745)"><rect x="0" y="0" width="820" height="610" fill="#1f1d19"/><rect x="30" y="35" width="370" height="95" fill="url(#wood)"/><rect x="420" y="35" width="370" height="95" fill="url(#wood)"/>
    <g transform="translate(35 150)"><rect width="360" height="115" fill="url(#wood)"/><g stroke="#6d351b" stroke-width="2"><line x1="25" y1="10" x2="25" y2="105"/><line x1="39" y1="10" x2="39" y2="105"/><line x1="53" y1="10" x2="53" y2="105"/><line x1="67" y1="10" x2="67" y2="105"/><line x1="81" y1="10" x2="81" y2="105"/><line x1="95" y1="10" x2="95" y2="105"/><line x1="109" y1="10" x2="109" y2="105"/><line x1="123" y1="10" x2="123" y2="105"/><line x1="137" y1="10" x2="137" y2="105"/><line x1="151" y1="10" x2="151" y2="105"/><line x1="165" y1="10" x2="165" y2="105"/><line x1="179" y1="10" x2="179" y2="105"/><line x1="193" y1="10" x2="193" y2="105"/><line x1="207" y1="10" x2="207" y2="105"/><line x1="221" y1="10" x2="221" y2="105"/><line x1="235" y1="10" x2="235" y2="105"/><line x1="249" y1="10" x2="249" y2="105"/><line x1="263" y1="10" x2="263" y2="105"/><line x1="277" y1="10" x2="277" y2="105"/><line x1="291" y1="10" x2="291" y2="105"/><line x1="305" y1="10" x2="305" y2="105"/><line x1="319" y1="10" x2="319" y2="105"/><line x1="333" y1="10" x2="333" y2="105"/></g><circle cx="180" cy="58" r="11" fill="#b17c2b"/></g><g transform="translate(35 290)"><rect width="360" height="115" fill="url(#wood)"/><g stroke="#6d351b" stroke-width="2"><line x1="25" y1="10" x2="25" y2="105"/><line x1="39" y1="10" x2="39" y2="105"/><line x1="53" y1="10" x2="53" y2="105"/><line x1="67" y1="10" x2="67" y2="105"/><line x1="81" y1="10" x2="81" y2="105"/><line x1="95" y1="10" x2="95" y2="105"/><line x1="109" y1="10" x2="109" y2="105"/><line x1="123" y1="10" x2="123" y2="105"/><line x1="137" y1="10" x2="137" y2="105"/><line x1="151" y1="10" x2="151" y2="105"/><line x1="165" y1="10" x2="165" y2="105"/><line x1="179" y1="10" x2="179" y2="105"/><line x1="193" y1="10" x2="193" y2="105"/><line x1="207" y1="10" x2="207" y2="105"/><line x1="221" y1="10" x2="221" y2="105"/><line x1="235" y1="10" x2="235" y2="105"/><line x1="249" y1="10" x2="249" y2="105"/><line x1="263" y1="10" x2="263" y2="105"/><line x1="277" y1="10" x2="277" y2="105"/><line x1="291" y1="10" x2="291" y2="105"/><line x1="305" y1="10" x2="305" y2="105"/><line x1="319" y1="10" x2="319" y2="105"/><line x1="333" y1="10" x2="333" y2="105"/></g><circle cx="180" cy="58" r="11" fill="#b17c2b"/></g><g transform="translate(35 430)"><rect width="360" height="115" fill="url(#wood)"/><g stroke="#6d351b" stroke-width="2"><line x1="25" y1="10" x2="25" y2="105"/><line x1="39" y1="10" x2="39" y2="105"/><line x1="53" y1="10" x2="53" y2="105"/><line x1="67" y1="10" x2="67" y2="105"/><line x1="81" y1="10" x2="81" y2="105"/><line x1="95" y1="10" x2="95" y2="105"/><line x1="109" y1="10" x2="109" y2="105"/><line x1="123" y1="10" x2="123" y2="105"/><line x1="137" y1="10" x2="137" y2="105"/><line x1="151" y1="10" x2="151" y2="105"/><line x1="165" y1="10" x2="165" y2="105"/><line x1="179" y1="10" x2="179" y2="105"/><line x1="193" y1="10" x2="193" y2="105"/><line x1="207" y1="10" x2="207" y2="105"/><line x1="221" y1="10" x2="221" y2="105"/><line x1="235" y1="10" x2="235" y2="105"/><line x1="249" y1="10" x2="249" y2="105"/><line x1="263" y1="10" x2="263" y2="105"/><line x1="277" y1="10" x2="277" y2="105"/><line x1="291" y1="10" x2="291" y2="105"/><line x1="305" y1="10" x2="305" y2="105"/><line x1="319" y1="10" x2="319" y2="105"/><line x1="333" y1="10" x2="333" y2="105"/></g><circle cx="180" cy="58" r="11" fill="#b17c2b"/></g>
    <rect x="420" y="150" width="370" height="395" fill="url(#wood)"/><rect x="455" y="190" width="140" height="325" fill="#3d3027" stroke="#663b20" stroke-width="5"/><rect x="620" y="190" width="140" height="325" fill="#3d3027" stroke="#663b20" stroke-width="5"/><g stroke="#d6c6aa" stroke-width="2" opacity=".75"><line x1="460" y1="190" x2="460" y2="515"/><line x1="470" y1="190" x2="470" y2="515"/><line x1="480" y1="190" x2="480" y2="515"/><line x1="490" y1="190" x2="490" y2="515"/><line x1="500" y1="190" x2="500" y2="515"/><line x1="510" y1="190" x2="510" y2="515"/><line x1="520" y1="190" x2="520" y2="515"/><line x1="530" y1="190" x2="530" y2="515"/><line x1="540" y1="190" x2="540" y2="515"/><line x1="550" y1="190" x2="550" y2="515"/><line x1="560" y1="190" x2="560" y2="515"/><line x1="570" y1="190" x2="570" y2="515"/><line x1="580" y1="190" x2="580" y2="515"/><line x1="590" y1="190" x2="590" y2="515"/><line x1="600" y1="190" x2="600" y2="515"/><line x1="610" y1="190" x2="610" y2="515"/><line x1="620" y1="190" x2="620" y2="515"/><line x1="630" y1="190" x2="630" y2="515"/><line x1="640" y1="190" x2="640" y2="515"/><line x1="650" y1="190" x2="650" y2="515"/><line x1="660" y1="190" x2="660" y2="515"/><line x1="670" y1="190" x2="670" y2="515"/><line x1="680" y1="190" x2="680" y2="515"/><line x1="690" y1="190" x2="690" y2="515"/><line x1="700" y1="190" x2="700" y2="515"/><line x1="710" y1="190" x2="710" y2="515"/><line x1="720" y1="190" x2="720" y2="515"/><line x1="730" y1="190" x2="730" y2="515"/><line x1="740" y1="190" x2="740" y2="515"/><line x1="750" y1="190" x2="750" y2="515"/></g><circle cx="608" cy="365" r="10" fill="#b17c2b"/><circle cx="630" cy="365" r="10" fill="#b17c2b"/></g>
</g>
<g font-family="Arial, sans-serif" fill="#5a5048" opacity=".72"><text x="72" y="96" font-size="34">靠阳台餐边区，绿植、晾衣架虚影、猫抓板，真实居家</text><text x="72" y="142" font-size="24">下柜90cm×宽120cm，上柜110cm×宽120cm；真实买家秀氛围</text></g>
<g opacity=".88"><rect x="250" y="1640" width="95" height="38" rx="10" fill="#e65a3c"/><rect x="980" y="1610" width="120" height="48" rx="10" fill="#f5f1e9"/><rect x="1120" y="1665" width="80" height="35" rx="8" fill="#5078aa"/><circle cx="1220" cy="1605" r="22" fill="#ead250"/></g>
</svg>